<?xml version="1.0" encoding="utf-8"?>
<!-- Generator: Adobe Illustrator 21.0.0, SVG Export Plug-In . SVG Version: 6.00 Build 0)  -->
<svg version="1.1" id="Layer_1" xmlns="http://www.w3.org/2000/svg" xmlns:xlink="http://www.w3.org/1999/xlink" x="0px" y="0px"
	 viewBox="0 0 373.6 65.9" style="enable-background:new 0 0 373.6 65.9;" xml:space="preserve">
<style type="text/css">
	.st0{fill:#F2F2F2;}
	.st1{fill:#CCCCCC;}
	.st2{fill:none;}
	.st3{fill:#5B828B;}
	.st4{fill:#FFFFFF;}
</style>
<g>
	<g>
		<rect x="203" y="53" class="st0" width="0.9" height="8.2"/>
		<rect x="140.6" y="53" class="st0" width="0.9" height="8.2"/>
		<rect x="171.8" y="53" class="st0" width="0.9" height="8.2"/>
		<rect x="156.2" y="54.6" class="st0" width="0.9" height="6.6"/>
		<rect x="148.4" y="56.9" class="st0" width="0.9" height="4.3"/>
		<rect x="164" y="56.9" class="st0" width="0.9" height="4.3"/>
		<rect x="187.4" y="54.6" class="st0" width="0.9" height="6.6"/>
		<rect x="179.6" y="56.9" class="st0" width="0.9" height="4.3"/>
		<rect x="195.2" y="56.9" class="st0" width="0.9" height="4.3"/>
		<rect x="78.2" y="53" class="st0" width="0.9" height="8.2"/>
		<rect x="109.4" y="53" class="st0" width="0.9" height="8.2"/>
		<rect x="93.8" y="54.6" class="st0" width="0.9" height="6.6"/>
		<rect x="86" y="56.9" class="st0" width="0.9" height="4.3"/>
		<rect x="101.6" y="56.9" class="st0" width="0.9" height="4.3"/>
		<rect x="125" y="54.6" class="st0" width="0.9" height="6.6"/>
		<rect x="117.2" y="56.9" class="st0" width="0.9" height="4.3"/>
		<rect x="132.8" y="56.9" class="st0" width="0.9" height="4.3"/>
	</g>
	<g>
		<rect x="327" y="53" class="st0" width="0.9" height="8.2"/>
		<rect x="264.6" y="53" class="st0" width="0.9" height="8.2"/>
		<rect x="295.8" y="53" class="st0" width="0.9" height="8.2"/>
		<rect x="280.2" y="54.6" class="st0" width="0.9" height="6.6"/>
		<rect x="272.4" y="56.9" class="st0" width="0.9" height="4.3"/>
		<rect x="288" y="56.9" class="st0" width="0.9" height="4.3"/>
		<rect x="311.4" y="54.6" class="st0" width="0.9" height="6.6"/>
		<rect x="303.6" y="56.9" class="st0" width="0.9" height="4.3"/>
		<rect x="319.2" y="56.9" class="st0" width="0.9" height="4.3"/>
		<rect x="233.4" y="53" class="st0" width="0.9" height="8.2"/>
		<rect x="217.8" y="54.6" class="st0" width="0.9" height="6.6"/>
		<rect x="210" y="56.9" class="st0" width="0.9" height="4.3"/>
		<rect x="225.6" y="56.9" class="st0" width="0.9" height="4.3"/>
		<rect x="249" y="54.6" class="st0" width="0.9" height="6.6"/>
		<rect x="241.2" y="56.9" class="st0" width="0.9" height="4.3"/>
		<rect x="256.8" y="56.9" class="st0" width="0.9" height="4.3"/>
	</g>
	<g>
		<rect x="357.2" y="53" class="st0" width="0.9" height="8.2"/>
		<rect x="341.6" y="54.6" class="st0" width="0.9" height="6.6"/>
		<rect x="333.8" y="56.9" class="st0" width="0.9" height="4.3"/>
		<rect x="349.4" y="56.9" class="st0" width="0.9" height="4.3"/>
		<rect x="372.8" y="54.6" class="st0" width="0.9" height="6.6"/>
		<rect x="365" y="56.9" class="st0" width="0.9" height="4.3"/>
	</g>
</g>
<g>
	<path class="st1" d="M229.3,44.5V8.9h7.9c5.3,0,7.9,2.6,7.9,7.9v4.9c0,2.7-0.6,4.3-1.9,5c1.3,0.8,1.9,2.4,1.9,4.9v4.9
		c0,5.3-2.6,7.9-7.9,7.9H229.3z M235.3,14.8v8.9h2c1.3,0,2-0.7,2-2v-4.9c0-1.3-0.7-2-2-2H235.3z M235.3,29.6v8.9h2c1.3,0,2-0.7,2-2
		v-4.9c0-1.3-0.7-2-2-2H235.3z"/>
	<path class="st1" d="M255.6,36.6c0,1.3,0.7,2,2,2c1.3,0,2-0.7,2-2V8.9h5.9v27.7c0,5.3-2.6,7.9-7.9,7.9s-7.9-2.6-7.9-7.9V8.9h5.9
		V36.6z"/>
	<path class="st1" d="M276.1,8.9v35.6h-5.9V8.9H276.1z"/>
	<path class="st1" d="M280.8,8.9h5.9v29.7h7.4v5.9h-13.3V8.9z"/>
	<path class="st1" d="M298.8,44.5V8.9h7.9c5.3,0,7.9,2.6,7.9,7.9v19.8c0,5.3-2.6,7.9-7.9,7.9H298.8z M304.7,14.8v23.7h2
		c1.3,0,2-0.7,2-2V16.8c0-1.3-0.7-2-2-2H304.7z"/>
	<path class="st1" d="M319.2,8.9h13.3v5.9h-7.4v8.9h6.2v5.9h-6.2v8.9h7.4v5.9h-13.3V8.9z"/>
	<path class="st1" d="M337.2,44.5V8.9h7.9c5.3,0,7.9,2.6,7.9,7.9v7.4c0,3-0.9,5-2.7,6.2l2.8,14.1h-5.9l-2.5-12.4h-1.6v12.4H337.2z
		 M343.1,14.8v11.4h2c1.3,0,2-0.7,2-2v-7.4c0-1.3-0.7-2-2-2H343.1z"/>
	<path class="st1" d="M357.6,32.4h5.9v4.2c0,1.3,0.7,2,2,2c1.3,0,2-0.7,2-2v-2.5c0-1.5-1.6-3.5-4.9-5.9c-3.3-2.5-4.9-5.4-4.9-8.9
		v-2.5c0-5.3,2.6-7.9,7.9-7.9s7.9,2.6,7.9,7.9V21h-5.9v-4.2c0-1.3-0.7-2-2-2c-1.3,0-2,0.7-2,2v2.5c0,1.5,1.6,3.5,4.9,5.9
		s4.9,5.4,4.9,8.9v2.5c0,5.3-2.6,7.9-7.9,7.9s-7.9-2.6-7.9-7.9V32.4z"/>
</g>
<g>
	<path class="st0" d="M78.2,8.8h13.4v5.9h-7.4v8.9h6.2v5.9h-6.2v14.9h-5.9V8.8z"/>
	<path class="st0" d="M94.6,44.5l4.1-35.7h9.3l4.1,35.7h-5.9l-1-7.4h-3.6l-1,7.4H94.6z M103.4,19.4l-1.2,11.7h2.4L103.4,19.4z"/>
	<path class="st0" d="M125,8.8l3.8,21.5l4-21.5h8.4v35.7h-5.9V25.7l-3.5,18.8h-5.8L122.6,26v18.5h-5.9V8.8H125z"/>
	<path class="st0" d="M151.9,36.5c0,1.3,0.7,2,2,2c1.3,0,2-0.7,2-2V8.8h5.9v27.8c0,5.3-2.6,7.9-7.9,7.9c-5.3,0-7.9-2.6-7.9-7.9V8.8
		h5.9V36.5z"/>
	<path class="st0" d="M166.5,44.5V8.8h7.9c5.3,0,7.9,2.6,7.9,7.9v7.4c0,3-0.9,5.1-2.7,6.2l2.8,14.1h-5.9l-2.5-12.4h-1.6v12.4H166.5z
		 M172.5,14.7v11.4h2c1.3,0,2-0.7,2-2v-7.4c0-1.3-0.7-2-2-2H172.5z"/>
	<path class="st0" d="M187.1,44.5l4.1-35.7h9.3l4.1,35.7h-5.9l-1-7.4H194l-1,7.4H187.1z M195.8,19.4l-1.2,11.7h2.4L195.8,19.4z"/>
	<path class="st0" d="M223.3,14.7h-5v29.7h-5.9V14.7h-5V8.8h15.9V14.7z"/>
</g>
<path class="st0" d="M34,62.8c-16.5,0-29.9-13.4-29.9-29.9C4.1,16.4,17.5,3.1,34,3.1s29.9,13.4,29.9,29.9
	C63.8,49.4,50.5,62.8,34,62.8z"/>
<path class="st0" d="M34,65.9C15.8,65.9,1,51.1,1,32.9S15.8,0,34,0s32.9,14.8,32.9,32.9S52.1,65.9,34,65.9z M34,1.2
	C16.5,1.2,2.2,15.4,2.2,32.9S16.5,64.7,34,64.7s31.8-14.2,31.8-31.8S51.5,1.2,34,1.2z"/>
<path class="st2" d="M34,33.9c6.4,0,11.6-3.2,11.6-6.2c0-0.7-0.3-1.3-0.8-1.9H23.1c-0.5,0.6-0.8,1.2-0.8,1.9
	C22.4,30.7,27.6,33.9,34,33.9z"/>
<g>
	<path class="st3" d="M19,42.1h29.9V23.7H19V42.1z"/>
	<path class="st3" d="M60.5,23.7h-9.7v18.4h9.7c1-2.9,1.6-6,1.6-9.2C62.1,29.7,61.5,26.6,60.5,23.7z"/>
	<path class="st3" d="M5.8,32.9c0,3.2,0.6,6.3,1.6,9.2H17V23.7H7.3C6.3,26.6,5.8,29.7,5.8,32.9z"/>
</g>
<path class="st4" d="M23.1,25.9h21.7c0.5,0.6,0.8,1.2,0.8,1.9c0,3-5.2,6.2-11.6,6.2s-11.6-3.2-11.6-6.2
	C22.4,27.1,22.7,26.5,23.1,25.9z"/>
</svg>
