<?xml version="1.0" encoding="utf-8"?>
<!-- Generator: Adobe Illustrator 21.0.0, SVG Export Plug-In . SVG Version: 6.00 Build 0)  -->
<svg version="1.1" id="Layer_1" xmlns="http://www.w3.org/2000/svg" xmlns:xlink="http://www.w3.org/1999/xlink" x="0px" y="0px"
	 viewBox="0 0 253.8 30.1" style="enable-background:new 0 0 253.8 30.1;" xml:space="preserve">
<style type="text/css">
	.st0{fill:#FFFFFF;}
</style>
<rect x="0.7" y="29.1" class="st0" width="253" height="1"/>
<rect x="0.7" y="0.4" class="st0" width="253" height="1"/>
<g>
	<path class="st0" d="M242.2,18.7c0.5,2.8,2.4,4.7,5.3,4.7c2.9,0,5-1.7,5-4.7c0-1.7-0.8-2.9-2.2-3.7l-3.4-1.5
		c-1.2-0.5-2.1-1-2.1-2.5c0-1.4,1.3-2.1,2.6-2.1c1.7,0,2.6,1.1,2.9,2.7l2-0.6c-0.6-2.5-2.2-4-4.9-4c-2.5,0-4.7,1.5-4.7,4.2
		c0,3,2.2,3.6,4.5,4.6c1.6,0.6,3.2,1.1,3.2,3.1c0,1.8-1.3,2.7-3,2.7c-2.1,0-3.1-1.4-3.5-3.4L242.2,18.7z M226.8,23.1h2v-6.8h3
		l4.1,7.2l1.8-1.1l-3.9-6.5c1.9-0.6,3.2-2.5,3.2-4.5c0-3.1-2.1-4.3-4.8-4.3h-5.4L226.8,23.1L226.8,23.1z M228.9,14.5V9h3.3
		c1.8,0,2.7,1.1,2.7,2.5c0,1.8-1.3,2.9-3.3,2.9h-2.7V14.5z M211.2,23.1h9.9v-1.8h-7.9v-5.7h6.5v-1.8h-6.5V9h7.9V7.2h-9.9V23.1z
		 M197.1,9h2.1c2.5,0,3.9,1.3,3.9,6.1c0,4.6-1.2,6.1-3.9,6.1H197L197.1,9L197.1,9z M193.4,9h1.7v12.3h-1.7v1.8h5.3
		c5.7,0,6.6-3.2,6.6-8.2c0-5.9-2-7.8-6.6-7.8h-5.3V9z M178.2,23.1h10.4v-1.8h-8.3V7.2h-2L178.2,23.1L178.2,23.1z M164.4,23.1h6.5
		v-1.8h-2.3V9h2.3V7.2h-6.5V9h2.2v12.3h-2.2V23.1z M147.8,7.2v11.7c0,2.3,1.5,4.5,5,4.5s5-2.3,5-4.4V7.2h-2v10.9
		c0,2.3-0.6,3.4-3.1,3.4c-2.1,0-2.8-1.1-2.8-3.4V7.2H147.8z M137.2,23.1c3.3,0,5.2-1.7,5.2-4.6c0-1.8-1-3.3-2.7-3.9
		c1.2-0.7,1.8-1.9,1.8-3.3c0-2.7-1.7-4.2-5.8-4.2h-5V9h1.7v12.3h-1.7v1.8C130.7,23.1,137.2,23.1,137.2,23.1z M134.4,14V9h2.2
		c1.4,0,2.8,0.5,2.8,2.4c0,1.4-0.9,2.6-2.7,2.6H134.4z M134.4,21.3v-5.4h2.9c2,0,3,1.3,3,2.9c0,2.2-1.7,2.6-3.5,2.6h-2.4V21.3z
		 M101.6,23.1h2V9h4.3V7.2H97.2V9h4.4V23.1z M90.3,17h-4.5L88,9.6L90.3,17z M90.9,18.8l1.5,4.7l2-0.7l-5-15.6h-2.6l-5,15.6l2,0.7
		l1.5-4.7H90.9z M66.3,23.1h2v-6.8h3l4.1,7.2l1.8-1.1l-4-6.4c1.9-0.6,3.2-2.5,3.2-4.5c0-3.1-2.1-4.3-4.8-4.3h-5.4v15.9H66.3z
		 M68.3,14.5V9h3.3c1.8,0,2.7,1.1,2.7,2.5c0,1.8-1.3,2.9-3.3,2.9h-2.7V14.5z M49.7,7.2v11.7c0,2.3,1.5,4.5,5,4.5s5-2.3,5-4.4V7.2h-2
		v10.9c0,2.3-0.6,3.4-3.1,3.4c-2.1,0-2.8-1.1-2.8-3.4V7.2H49.7z M37.8,18.7l3.6-8.4h0.1l0.4,12.9H44l-0.6-16h-2.7l-2.9,6.9l-2.9-6.9
		h-2.7l-0.6,15.9h2.2l0.4-12.9h0.1L37.8,18.7z M22.9,17h-4.5l2.3-7.4L22.9,17z M23.5,18.8l1.5,4.7l2-0.7L22,7.2h-2.6l-5,15.6l2,0.7
		l1.5-4.7H23.5z M1.5,23.1h2v-7.5h6.7v-1.8H3.5V9h8V7.2h-10V23.1z"/>
</g>
</svg>
